<svg height="480pt" viewBox="-24 0 480 480.34799" width="480pt" xmlns="http://www.w3.org/2000/svg"><path d="m168.175781 344c-.003906-44.960938 23.585938-86.625 62.140625-109.757812 38.554688-23.132813 86.417969-24.34375 126.089844-3.183594 1.289062.6875 2.511719 1.445312 3.769531 2.175781v-185.234375h23.277344c-1.570313-9.84375-6.25-18.929688-13.359375-25.917969-8.964844-9.046875-21.183594-14.121093-33.917969-14.082031h-280c-26.511719 0-48 21.492188-48 48v392h213.453125c-2.710937-1.941406-5.359375-4-7.902344-6.121094-28.914062-24.28125-45.59375-60.121094-45.550781-97.878906zm-120-256h120v80h-120zm0 0" fill="#78b9eb"/><path d="m360.175781 320h-40v-64h-48v64h-64v48h64v64h48v-64h64v-48zm0 0" fill="#78b9eb"/><g fill="#006df0"><path d="m200.175781 104h128v16h-128zm0 0"/><path d="m200.175781 144h128v16h-128zm0 0"/><path d="m40.175781 208h136v16h-136zm0 0"/><path d="m40.175781 248h104v16h-104zm0 0"/><path d="m176.175781 80h-136v96h136zm-16 80h-104v-64h104zm0 0"/><path d="m368.175781 228.640625v-172.640625h24.636719l-1.4375-9.28125c-1.839844-11.484375-7.308594-22.082031-15.601562-30.238281-10.433594-10.609375-24.714844-16.5546878-39.597657-16.480469h-280c-30.914062.0351562-55.964843 25.085938-56 56v400h218.878907c40.613281 28.246094 93.359374 32.210938 137.738281 10.351562 44.378906-21.855468 73.390625-66.085937 75.757812-115.5 2.363281-49.414062-22.289062-96.214843-64.375-122.210937zm-32-212.640625c15.902344.050781 30.289063 9.453125 36.71875 24h-263.039062c-2.574219-8.929688-7.425781-17.035156-14.082031-23.519531-.164063-.183594-.355469-.34375-.558594-.480469zm-320 424v-384c0-16.183594 9.757813-30.773438 24.71875-36.957031 14.957031-6.183594 32.167969-2.742188 43.597657 8.71875 5.878906 5.8125 9.746093 13.351562 11.042968 21.519531l1.117188 6.71875h255.523437v164.082031c-59.828125-27.082031-130.457031-7.523437-167.835937 46.46875-37.378906 53.996094-30.816406 126.988281 15.59375 173.449219zm352 0c-2.5625 1.839844-5.121093 3.679688-7.839843 5.359375l-4.402344 2.640625c-5.339844 3.128906-10.933594 5.804688-16.71875 8-38.546875 14.800781-81.996094 8.757812-115.039063-16-1.839843-1.359375-3.601562-2.800781-5.28125-4.238281-38.53125-32.472657-52.671875-85.5625-35.398437-132.898438 17.277344-47.339843 62.285156-78.839843 112.679687-78.863281 19.523438-.101562 38.769531 4.65625 56 13.839844l.476563.242187c36.21875 19.304688 60.058594 55.777344 63.203125 96.699219 3.144531 40.917969-14.839844 80.605469-47.679688 105.21875zm0 0"/><path d="m40.175781 288h104v16h-104zm0 0"/><path d="m328.175781 312v-64h-64v64h-64v64h64v64h64v-64h64v-64zm48 48h-64v64h-32v-64h-64v-32h64v-64h32v64h64zm0 0"/></g></svg>