<svg width="138" height="48" viewBox="0 0 138 48" fill="none" xmlns="http://www.w3.org/2000/svg">
<path fill-rule="evenodd" clip-rule="evenodd" d="M30.316 5C34.3 5 37.529 8.256 37.529 12.273C37.5324 13.7657 37.0764 15.2232 36.2229 16.4478C35.3693 17.6724 34.1596 18.6046 32.758 19.118L38.572 29.58H42.552C43.165 29.58 43.662 30.08 43.662 30.698C43.662 31.316 43.165 31.816 42.552 31.816H37.94C37.9287 31.8162 37.9173 31.8162 37.906 31.816H1.11C0.497999 31.816 0.000999451 31.316 0.000999451 30.698C0.000999451 30.08 0.497999 29.58 1.111 29.58H5.091L15.444 11.018C15.5369 10.8512 15.6715 10.7113 15.8344 10.6119C15.9974 10.5125 16.1834 10.4569 16.3742 10.4505C16.565 10.4442 16.7542 10.4873 16.9235 10.5757C17.0927 10.6641 17.2362 10.7948 17.34 10.955L23.288 20.144L25.138 17.335C23.8292 15.9752 23.0995 14.1603 23.103 12.273C23.103 8.256 26.333 5 30.317 5H30.316ZM24.607 22.183L29.395 29.58H36.029L28.572 16.162L24.607 22.183ZM26.747 29.58L16.48 13.72L7.635 29.58H26.746H26.747ZM35.449 12.273C35.452 13.3951 35.0899 14.4878 34.4174 15.3861C33.7449 16.2845 32.7985 16.9397 31.721 17.253L29.62 13.472C29.5276 13.3056 29.3939 13.1658 29.2317 13.0662C29.0696 12.9666 28.8845 12.9104 28.6943 12.9032C28.5041 12.8959 28.3153 12.9379 28.146 13.0249C27.9767 13.1119 27.8328 13.2411 27.728 13.4L26.326 15.53C25.5835 14.6071 25.1797 13.4575 25.182 12.273C25.182 9.414 27.481 7.097 30.316 7.097C33.151 7.097 35.449 9.414 35.449 12.273Z" fill="#3C82F6"/>
<path d="M9.62 35.173C9.009 35.173 8.513 35.673 8.513 36.29C8.513 36.907 9.009 37.406 9.62 37.406H34.04C34.652 37.406 35.148 36.906 35.148 36.29C35.148 35.673 34.652 35.173 34.041 35.173H9.62ZM18.133 40.763C17.52 40.763 17.023 41.264 17.023 41.882C17.023 42.499 17.52 43 18.133 43H25.529C26.141 43 26.638 42.5 26.638 41.882C26.638 41.264 26.141 40.763 25.528 40.763H18.133Z" fill="#3C82F6"/>
<path fill-rule="evenodd" clip-rule="evenodd" d="M120.027 21.871C119.045 20.621 117.574 19.948 115.68 19.948C112.696 19.948 109.631 22.476 109.631 26.734C109.631 30.992 112.696 33.52 115.68 33.52C117.574 33.52 119.045 32.86 120.027 31.597V32.655C120.027 35.1 118.555 36.584 115.885 36.584C114.291 36.584 112.778 36.061 111.457 35.251L110.421 37.683C111.797 38.672 113.936 39.208 115.885 39.208C120.245 39.208 122.888 36.667 122.888 32.531V20.291H120.027V21.871ZM112.56 26.734C112.56 24.509 114.004 22.654 116.415 22.654C118.718 22.654 120.272 24.427 120.272 26.734C120.272 29.042 118.718 30.814 116.415 30.814C114.004 30.814 112.56 28.947 112.56 26.734ZM104.341 21.885C103.442 20.717 102.093 19.948 100.24 19.948C96.59 19.948 93.714 22.846 93.714 26.871C93.714 30.896 96.589 33.795 100.24 33.795C102.094 33.795 103.442 33.04 104.341 31.872V33.452H107.189V20.292H104.341V21.885ZM96.643 26.871C96.643 24.564 98.129 22.654 100.581 22.654C102.938 22.654 104.519 24.467 104.519 26.871C104.519 29.275 102.938 31.089 100.581 31.089C98.129 31.089 96.643 29.179 96.643 26.871ZM138 26.858C137.987 22.751 135.48 19.948 131.828 19.948C127.986 19.948 125.329 22.751 125.329 26.872C125.329 31.048 128.095 33.796 132.005 33.796C133.981 33.796 135.779 33.316 137.373 31.942L135.956 29.894C134.88 30.759 133.49 31.282 132.182 31.282C130.329 31.282 128.681 30.292 128.299 27.929H137.946C137.973 27.6 138 27.229 138 26.858ZM128.313 25.745C128.613 23.822 129.743 22.503 131.773 22.503C133.586 22.503 134.771 23.698 135.084 25.745H128.313Z" fill="#3C82F6"/>
<path d="M64.333 27.957L58.787 14.219H54.059V33.452H57.139V17.777L62.71 31.57H65.953L71.526 17.626V33.452H74.606V14.219H69.877L64.332 27.957H64.333ZM81.204 33.452V20.292H78.343V33.452H81.204ZM93.386 20.319C92.732 20.058 92.064 19.949 91.192 19.949C89.598 19.949 88.262 20.525 87.404 21.775V20.29H84.584V33.45H87.432V26.21C87.432 23.972 88.726 22.68 90.538 22.68C91.233 22.68 92.105 22.845 92.704 23.161L93.386 20.318V20.319ZM81.776 15.744C81.776 14.604 80.89 13.711 79.759 13.711C78.629 13.711 77.769 14.604 77.769 15.744C77.769 16.884 78.629 17.75 79.759 17.75C80.89 17.75 81.776 16.884 81.776 15.744Z" fill="#3C82F6"/>
</svg>
