<svg width="158" height="48" viewBox="0 0 158 48" fill="none" xmlns="http://www.w3.org/2000/svg">
<g clip-path="url(#clip0)">
<path d="M55.423 18.178V15.687H66.38V18.178H62.304V32.053H59.47V18.178H55.423ZM73.521 22.755C73.082 22.677 72.6369 22.6382 72.191 22.639C70.37 22.639 69.301 23.827 69.301 26.231V32.024H66.611V20.554H69.242V22.176H69.3C69.82 21.191 70.977 20.176 72.51 20.176C72.943 20.176 73.232 20.206 73.521 20.235V22.755ZM86.387 32.024H83.785V30.576H83.727C82.947 31.561 81.703 32.459 79.795 32.459C77.222 32.459 74.302 30.402 74.302 26.289C74.302 22.639 76.875 20.206 79.997 20.206C81.905 20.206 83.062 21.219 83.756 22.117H83.814V20.553H86.416V32.024H86.386H86.387ZM80.489 30.084C82.252 30.084 83.9 28.548 83.9 26.346C83.9 24.029 82.397 22.494 80.518 22.494C78.147 22.494 77.019 24.406 77.019 26.289C77.019 28.2 78.118 30.083 80.489 30.083V30.084ZM89.51 20.553H92.17V22.002H92.227C93.123 20.698 94.453 20.177 95.725 20.177C98.096 20.177 100.178 21.741 100.178 25.42V32.024H97.488V25.564C97.488 23.594 96.564 22.552 95.031 22.552C93.354 22.552 92.198 23.74 92.198 25.97V32.053H89.509V20.553H89.51ZM108.302 23.508C108.186 22.668 107.55 22.118 106.769 22.118C105.844 22.118 105.324 22.697 105.324 23.334C105.324 24.029 105.671 24.522 107.665 25.188C110.123 25.97 110.99 27.245 110.99 28.867C110.99 30.981 109.4 32.459 106.769 32.459C104.023 32.459 102.664 30.952 102.461 28.809H104.948C105.063 29.765 105.642 30.489 106.827 30.489C107.839 30.489 108.417 29.852 108.417 29.069C108.417 28.201 107.926 27.65 106.018 27.013C103.878 26.318 102.779 25.246 102.779 23.45C102.779 21.567 104.254 20.177 106.682 20.177C109.14 20.177 110.441 21.625 110.73 23.507H108.302V23.508ZM113.332 15.281H116.31V18.004H113.332V15.281ZM113.477 20.553H116.165V32.053H113.477V20.553ZM124.463 23.508C124.347 22.668 123.711 22.118 122.93 22.118C122.005 22.118 121.485 22.697 121.485 23.334C121.485 24.029 121.832 24.522 123.827 25.188C126.284 25.97 127.151 27.245 127.151 28.867C127.151 30.981 125.561 32.459 122.93 32.459C120.184 32.459 118.825 30.952 118.623 28.809H121.109C121.225 29.765 121.803 30.489 122.988 30.489C124 30.489 124.578 29.852 124.578 29.069C124.578 28.201 124.087 27.65 122.179 27.013C120.039 26.318 118.941 25.246 118.941 23.45C118.941 21.567 120.415 20.177 122.844 20.177C125.301 20.177 126.602 21.625 126.891 23.507H124.463V23.508ZM128.308 20.553H129.753V16.875H132.442V20.553H135.304V22.813H132.413V27.94C132.413 29.504 132.905 29.939 134.003 29.939C134.466 29.939 134.986 29.852 135.391 29.736V31.908C134.784 32.082 134.032 32.169 133.367 32.169C130.505 32.169 129.753 30.431 129.753 28.085V22.813H128.308V20.553ZM142.619 20.177C146.204 20.177 148.748 22.813 148.748 26.289C148.748 29.678 146.175 32.459 142.619 32.459C139.121 32.459 136.49 29.765 136.49 26.289C136.49 22.726 139.15 20.177 142.619 20.177ZM142.619 30.054C144.643 30.054 146.03 28.432 146.03 26.289C146.03 24.261 144.729 22.552 142.619 22.552C140.566 22.552 139.207 24.145 139.207 26.289C139.207 28.49 140.769 30.054 142.619 30.054ZM156.671 22.639C154.849 22.639 153.78 23.827 153.78 26.231V32.024H151.091V20.554H153.722V22.176H153.78C154.3 21.191 155.456 20.176 156.989 20.176C157.422 20.176 157.711 20.206 158.001 20.235V22.755C157.562 22.6771 157.117 22.6382 156.671 22.639ZM20.816 37.731C20.4477 37.7305 20.0947 37.5838 19.8344 37.3232C19.5742 37.0626 19.428 36.7093 19.428 36.341V11.37C19.428 10.617 20.035 9.98 20.815 9.98C21.1833 9.98053 21.5363 10.1272 21.7966 10.3878C22.0568 10.6484 22.203 11.0017 22.203 11.37V36.34C22.203 37.093 21.567 37.73 20.816 37.73V37.731ZM15.033 25.247H8.383C8.01487 25.2462 7.66209 25.0994 7.40206 24.8388C7.14204 24.5782 6.996 24.2251 6.996 23.857C6.996 23.074 7.603 22.466 8.384 22.466H15.034C15.4027 22.466 15.7562 22.6124 16.0169 22.8731C16.2776 23.1338 16.424 23.4873 16.424 23.856C16.424 24.2246 16.2776 24.5782 16.0169 24.8389C15.7562 25.0996 15.4027 25.246 15.034 25.246L15.033 25.247ZM33.276 25.247H26.598C26.2297 25.2465 25.8767 25.0998 25.6164 24.8392C25.3562 24.5786 25.21 24.2253 25.21 23.857C25.21 23.074 25.817 22.466 26.598 22.466H33.248C33.6161 22.4668 33.9689 22.6136 34.2289 22.8742C34.489 23.1348 34.635 23.4879 34.635 23.856C34.635 24.638 34.028 25.246 33.276 25.246V25.247Z" fill="#3C82F6"/>
<path d="M20.816 44.712C9.338 44.712 0 35.356 0 23.856C0 12.356 9.338 3 20.816 3C32.294 3 41.632 12.356 41.632 23.856C41.632 35.356 32.294 44.712 20.816 44.712ZM20.816 5.781C10.871 5.781 2.776 13.891 2.776 23.856C2.776 33.821 10.871 41.931 20.816 41.931C30.762 41.931 38.856 33.821 38.856 23.856C38.856 13.891 30.763 5.781 20.817 5.781H20.816Z" fill="#3C82F6"/>
</g>
<defs>
<clipPath id="clip0">
<rect width="158" height="48" fill="white"/>
</clipPath>
</defs>
</svg>
